<svg width="16" height="47" viewBox="0 0 16 47" fill="none" xmlns="http://www.w3.org/2000/svg">
<path d="M9 46L9 47L7 47L7 46L9 46ZM7.29289 0.292893C7.68341 -0.0976295 8.31658 -0.0976296 8.7071 0.292892L15.0711 6.65685C15.4616 7.04738 15.4616 7.68054 15.0711 8.07107C14.6805 8.46159 14.0474 8.46159 13.6569 8.07107L8 2.41422L2.34314 8.07107C1.95262 8.46159 1.31945 8.46159 0.928929 8.07107C0.538404 7.68054 0.538404 7.04738 0.928929 6.65685L7.29289 0.292893ZM7 46L7 1L9 1L9 46L7 46Z" fill="#F0803D"/>
</svg>
